<svg xmlns="http://www.w3.org/2000/svg" xmlns:xlink="http://www.w3.org/1999/xlink" width="500" zoomAndPan="magnify" viewBox="0 0 375 374.999991" height="500" preserveAspectRatio="xMidYMid meet" version="1.0"><rect x="-37.5" width="450" fill="#ffffff" y="-37.499999" height="449.999989" fill-opacity="1"/><rect x="-37.5" width="450" fill="#ffffff" y="-37.499999" height="449.999989" fill-opacity="1"/><rect x="-37.5" width="450" fill="#ffffff" y="-37.499999" height="449.999989" fill-opacity="1"/><path fill="#e5c9b8" d="M 144.34375 68.238281 C 144.34375 68.238281 142.390625 82.132812 137.179688 87.164062 C 131.972656 92.195312 115.046875 97.269531 113.71875 112.730469 C 112.976562 121.417969 132.300781 159.339844 157.109375 154.777344 C 170.613281 152.296875 187.628906 150.214844 197.246094 137.175781 C 201.691406 131.148438 233.226562 109.796875 235.171875 77.203125 L 144.34375 68.238281 " fill-opacity="1" fill-rule="nonzero"/><path fill="#f58f6d" d="M 270.613281 122.90625 C 270.613281 122.90625 267.015625 113.910156 270.820312 111.617188 C 274.625 109.324219 276.191406 112.527344 276.191406 112.527344 C 276.191406 112.527344 277.984375 106.730469 281.5625 107.691406 C 285.144531 108.652344 283.578125 111.617188 283.578125 111.617188 C 283.578125 111.617188 290.964844 108.054688 289.847656 114.628906 C 289.847656 114.628906 295.445312 115.152344 292.085938 119.855469 C 292.085938 119.855469 296.5625 122.769531 291.414062 126.582031 C 286.261719 130.390625 279.097656 130.839844 274.066406 128.597656 C 269.03125 126.355469 270.613281 122.90625 270.613281 122.90625 " fill-opacity="1" fill-rule="nonzero"/><path fill="#472420" d="M 275.796875 112.734375 C 275.796875 112.734375 275.828125 112.792969 275.882812 112.90625 C 276.078125 113.296875 276.570312 114.324219 277.011719 115.496094 C 277.453125 116.660156 277.835938 117.988281 277.835938 118.902344 C 277.835938 119.308594 277.757812 119.613281 277.640625 119.785156 C 277.519531 119.953125 277.390625 120.050781 277.058594 120.082031 C 276.914062 120.09375 276.78125 120.097656 276.652344 120.097656 C 275.347656 120.09375 274.46875 119.640625 273.757812 118.949219 C 273.050781 118.257812 272.542969 117.304688 272.125 116.347656 C 272.027344 116.121094 271.761719 116.019531 271.539062 116.117188 C 271.3125 116.214844 271.207031 116.480469 271.308594 116.707031 C 271.742188 117.703125 272.289062 118.757812 273.132812 119.589844 C 273.96875 120.417969 275.128906 121 276.652344 120.992188 C 276.804688 120.992188 276.957031 120.988281 277.121094 120.976562 C 277.664062 120.945312 278.128906 120.683594 278.386719 120.28125 C 278.648438 119.882812 278.726562 119.40625 278.730469 118.902344 C 278.722656 117.605469 278.183594 115.996094 277.652344 114.667969 C 277.121094 113.347656 276.59375 112.328125 276.589844 112.320312 C 276.476562 112.101562 276.207031 112.015625 275.988281 112.128906 C 275.765625 112.246094 275.683594 112.515625 275.796875 112.734375 " fill-opacity="1" fill-rule="nonzero"/><path fill="#472420" d="M 278.175781 117.582031 C 278.195312 117.574219 279.320312 117.15625 280.558594 116.34375 C 281.789062 115.53125 283.164062 114.324219 283.570312 112.628906 C 283.625 112.386719 283.476562 112.148438 283.234375 112.089844 C 282.992188 112.035156 282.753906 112.183594 282.695312 112.425781 C 282.398438 113.738281 281.21875 114.84375 280.070312 115.59375 C 279.496094 115.972656 278.941406 116.261719 278.527344 116.453125 C 278.324219 116.550781 278.15625 116.621094 278.039062 116.671875 L 277.90625 116.722656 L 277.863281 116.738281 C 277.632812 116.824219 277.515625 117.082031 277.601562 117.316406 C 277.6875 117.546875 277.941406 117.667969 278.175781 117.582031 " fill-opacity="1" fill-rule="nonzero"/><path fill="#472420" d="M 288.199219 116.207031 C 288.199219 116.207031 288.121094 116.28125 287.96875 116.414062 C 287.449219 116.882812 286.101562 118.0625 284.617188 119.125 C 283.875 119.65625 283.101562 120.15625 282.382812 120.519531 C 281.671875 120.890625 281.011719 121.109375 280.5625 121.121094 L 280.316406 121.125 C 279.183594 121.125 278.453125 120.878906 278.007812 120.652344 C 277.785156 120.539062 277.636719 120.425781 277.546875 120.347656 L 277.449219 120.261719 L 277.4375 120.246094 L 277.433594 120.242188 L 277.222656 120.425781 L 277.4375 120.25 L 277.433594 120.242188 L 277.222656 120.425781 L 277.4375 120.25 C 277.28125 120.054688 277 120.023438 276.808594 120.179688 C 276.617188 120.335938 276.582031 120.617188 276.738281 120.808594 C 276.796875 120.890625 277.789062 122.027344 280.316406 122.019531 C 280.402344 122.019531 280.496094 122.019531 280.589844 122.019531 C 281.375 121.988281 282.226562 121.628906 283.125 121.140625 C 285.796875 119.667969 288.792969 116.875 288.808594 116.863281 C 288.988281 116.695312 289 116.414062 288.832031 116.230469 C 288.664062 116.050781 288.382812 116.039062 288.199219 116.207031 " fill-opacity="1" fill-rule="nonzero"/><path fill="#472420" d="M 289.933594 121.304688 L 289.910156 121.335938 C 289.773438 121.515625 289.082031 122.378906 288.003906 123.183594 C 286.925781 123.988281 285.480469 124.726562 283.824219 124.726562 C 283.515625 124.726562 283.195312 124.699219 282.871094 124.644531 C 280.777344 124.28125 279.773438 123.46875 279.261719 122.785156 C 279.003906 122.4375 278.871094 122.117188 278.800781 121.886719 C 278.765625 121.773438 278.75 121.679688 278.738281 121.621094 L 278.730469 121.558594 L 278.726562 121.546875 L 278.605469 121.554688 L 278.726562 121.550781 L 278.726562 121.546875 L 278.605469 121.554688 L 278.726562 121.550781 C 278.714844 121.300781 278.503906 121.113281 278.257812 121.128906 C 278.011719 121.140625 277.820312 121.351562 277.835938 121.597656 C 277.835938 121.652344 277.890625 122.4375 278.542969 123.316406 C 279.195312 124.199219 280.449219 125.144531 282.71875 125.527344 C 283.097656 125.59375 283.464844 125.625 283.824219 125.625 C 285.878906 125.621094 287.585938 124.660156 288.769531 123.722656 C 289.957031 122.785156 290.640625 121.855469 290.65625 121.835938 C 290.800781 121.636719 290.757812 121.355469 290.5625 121.207031 C 290.359375 121.0625 290.082031 121.105469 289.933594 121.304688 " fill-opacity="1" fill-rule="nonzero"/><path fill="#472420" d="M 277.859375 123.226562 L 277.847656 123.253906 C 277.78125 123.429688 277.410156 124.324219 276.625 125.152344 C 275.835938 125.980469 274.667969 126.738281 272.90625 126.742188 C 272.5625 126.742188 272.1875 126.710938 271.789062 126.644531 C 271.546875 126.605469 271.316406 126.769531 271.273438 127.011719 C 271.234375 127.257812 271.398438 127.488281 271.644531 127.53125 C 272.085938 127.605469 272.507812 127.640625 272.90625 127.640625 C 275.082031 127.644531 276.558594 126.597656 277.449219 125.578125 C 278.34375 124.554688 278.691406 123.550781 278.703125 123.519531 C 278.785156 123.285156 278.660156 123.03125 278.429688 122.949219 C 278.195312 122.867188 277.9375 122.992188 277.859375 123.226562 " fill-opacity="1" fill-rule="nonzero"/><path fill="#f58f6d" d="M 103.96875 189.238281 C 101.972656 185.089844 106.117188 177.566406 107.304688 175.960938 C 108.492188 174.355469 112.042969 172.800781 112.042969 172.800781 L 118.890625 177.523438 C 118.890625 177.523438 126.546875 184.882812 123.125 187.199219 L 121.242188 187.824219 C 121.242188 187.824219 120.003906 198.121094 116.671875 196.746094 C 114.617188 195.898438 113.808594 193.96875 113.808594 193.96875 C 113.808594 193.96875 110.96875 195.773438 109.410156 192.890625 C 109.410156 192.890625 106.753906 193.050781 106.0625 190.773438 C 106.0625 190.773438 105.304688 192.011719 103.96875 189.238281 " fill-opacity="1" fill-rule="nonzero"/><path fill="#7b338d" d="M 219.109375 128.898438 C 219.109375 128.898438 240.84375 142.835938 246.210938 150.21875 C 246.210938 150.21875 265.605469 122.203125 269.511719 123.332031 C 273.417969 124.464844 278.300781 126.070312 279.277344 131.867188 C 280.253906 137.667969 260.722656 174.195312 251.445312 177.445312 C 242.164062 180.691406 214.804688 160.921875 213.347656 159.945312 C 211.890625 158.96875 217.535156 131.378906 219.109375 128.898438 " fill-opacity="1" fill-rule="nonzero"/><path fill="#e5c9b8" d="M 222.703125 333.804688 C 222.703125 333.804688 218.945312 349.273438 225.496094 352.824219 C 232.046875 356.375 236.042969 350.46875 242.90625 351.800781 C 246.660156 352.53125 262.21875 352.835938 263.84375 348.355469 C 265.472656 343.878906 260.339844 338.265625 253.691406 337.328125 C 247.042969 336.386719 238.570312 334.777344 236.449219 331.855469 C 234.328125 328.929688 222.703125 333.804688 222.703125 333.804688 " fill-opacity="1" fill-rule="nonzero"/><path fill="#161b26" d="M 222.480469 348.921875 C 223.070312 350.617188 224.019531 352.027344 225.496094 352.824219 C 232.046875 356.375 236.042969 350.46875 242.90625 351.800781 C 246.660156 352.53125 262.21875 352.835938 263.84375 348.355469 C 263.90625 348.191406 263.953125 348.019531 263.996094 347.851562 C 255.03125 348.859375 244.117188 346.671875 238.691406 348.015625 C 233.953125 349.191406 226.5 349.085938 222.480469 348.921875 " fill-opacity="1" fill-rule="nonzero"/><path fill="#e5c9b8" d="M 109.105469 256.359375 C 109.105469 256.359375 95.984375 247.363281 90.347656 252.246094 C 84.710938 257.125 87.511719 266.683594 83.839844 272.640625 C 81.828125 275.898438 78.34375 285.304688 81.953125 288.410156 C 85.558594 291.519531 92.617188 288.703125 95.847656 282.808594 C 99.078125 276.910156 102.578125 270.875 106.058594 269.925781 C 109.542969 268.972656 109.105469 256.359375 109.105469 256.359375 " fill-opacity="1" fill-rule="nonzero"/><path fill="#8c1838" d="M 156.144531 204.585938 C 156.144531 204.585938 150.527344 221.789062 145.972656 248.976562 C 145.972656 248.976562 115.691406 253.386719 109.515625 252.90625 C 103.34375 252.429688 102.292969 268.875 104.476562 274.675781 C 104.476562 274.675781 146.257812 283.914062 159.6875 283.246094 C 173.117188 282.570312 201.820312 247.539062 201.820312 247.539062 L 216.195312 283.871094 L 221.660156 333.566406 C 221.660156 333.566406 237.203125 339.484375 240.316406 336.265625 C 246.8125 329.558594 248.980469 288.109375 248.4375 272.597656 C 247.753906 253.082031 235.054688 207.347656 233.496094 207.308594 C 231.9375 207.265625 156.144531 204.585938 156.144531 204.585938 " fill-opacity="1" fill-rule="nonzero"/><path fill="#801537" d="M 233.496094 207.308594 C 231.9375 207.265625 156.144531 204.585938 156.144531 204.585938 C 156.144531 204.585938 150.527344 221.789062 145.972656 248.976562 C 145.972656 248.976562 115.691406 253.386719 109.515625 252.90625 C 107.496094 252.75 106.03125 254.410156 105.042969 256.910156 C 120.246094 259.441406 147.996094 263.746094 153.175781 262.34375 C 160.378906 260.386719 165.632812 230.84375 165.632812 230.84375 C 178.160156 231.585938 221.871094 229.519531 240.261719 228.585938 C 237.15625 216.605469 234.199219 207.328125 233.496094 207.308594 " fill-opacity="1" fill-rule="nonzero"/><path fill="#161b26" d="M 95.0625 250.800781 C 93.269531 250.753906 91.617188 251.144531 90.347656 252.246094 C 84.710938 257.125 87.511719 266.683594 83.839844 272.640625 C 81.828125 275.898438 78.34375 285.304688 81.953125 288.410156 C 82.085938 288.527344 82.226562 288.632812 82.371094 288.730469 C 85.59375 279.542969 89.507812 271.859375 90.171875 266.304688 C 90.75 261.449219 93.484375 254.503906 95.0625 250.800781 " fill-opacity="1" fill-rule="nonzero"/><path fill="#472420" d="M 236.386719 214.132812 C 236.386719 214.132812 235.457031 214.171875 233.761719 214.210938 C 232.066406 214.25 229.609375 214.289062 226.554688 214.289062 C 212.0625 214.289062 184.183594 213.40625 161.238281 207.472656 C 161.03125 207.417969 160.816406 207.542969 160.761719 207.75 C 160.710938 207.960938 160.835938 208.171875 161.042969 208.226562 C 184.113281 214.191406 212.027344 215.066406 226.554688 215.070312 C 232.671875 215.070312 236.414062 214.914062 236.417969 214.914062 C 236.636719 214.902344 236.800781 214.722656 236.792969 214.507812 C 236.785156 214.289062 236.601562 214.125 236.386719 214.132812 " fill-opacity="1" fill-rule="nonzero"/><path fill="#472420" d="M 158.707031 207.875 L 159.152344 214.703125 C 159.167969 214.917969 159.351562 215.082031 159.566406 215.066406 C 159.78125 215.054688 159.945312 214.867188 159.929688 214.652344 L 159.484375 207.824219 C 159.472656 207.609375 159.285156 207.445312 159.070312 207.460938 C 158.855469 207.476562 158.695312 207.660156 158.707031 207.875 " fill-opacity="1" fill-rule="nonzero"/><path fill="#472420" d="M 165.242188 208.96875 L 165.929688 216.449219 C 165.949219 216.664062 166.136719 216.820312 166.351562 216.800781 C 166.566406 216.78125 166.726562 216.59375 166.703125 216.375 L 166.019531 208.898438 C 166 208.683594 165.808594 208.523438 165.59375 208.546875 C 165.382812 208.5625 165.222656 208.753906 165.242188 208.96875 " fill-opacity="1" fill-rule="nonzero"/><path fill="#472420" d="M 173.417969 210.570312 L 173.417969 217.859375 C 173.417969 218.074219 173.59375 218.25 173.808594 218.25 C 174.023438 218.25 174.195312 218.074219 174.195312 217.859375 L 174.195312 210.570312 C 174.195312 210.355469 174.023438 210.179688 173.808594 210.179688 C 173.59375 210.179688 173.417969 210.355469 173.417969 210.570312 " fill-opacity="1" fill-rule="nonzero"/><path fill="#472420" d="M 181.929688 211.898438 L 181.929688 219.304688 C 181.929688 219.519531 182.105469 219.691406 182.316406 219.691406 C 182.535156 219.691406 182.707031 219.519531 182.707031 219.304688 L 182.707031 211.898438 C 182.707031 211.683594 182.535156 211.507812 182.316406 211.507812 C 182.105469 211.507812 181.929688 211.683594 181.929688 211.898438 " fill-opacity="1" fill-rule="nonzero"/><path fill="#472420" d="M 191.941406 213.027344 L 191.253906 219.261719 C 191.226562 219.476562 191.382812 219.667969 191.597656 219.691406 C 191.8125 219.714844 192.003906 219.558594 192.027344 219.347656 L 192.714844 213.113281 C 192.738281 212.898438 192.585938 212.707031 192.371094 212.679688 C 192.15625 212.65625 191.964844 212.8125 191.941406 213.027344 " fill-opacity="1" fill-rule="nonzero"/><path fill="#472420" d="M 200.925781 213.753906 L 199.808594 220.460938 C 199.769531 220.675781 199.914062 220.875 200.125 220.914062 C 200.335938 220.949219 200.539062 220.804688 200.574219 220.589844 L 201.695312 213.882812 C 201.730469 213.671875 201.589844 213.46875 201.375 213.433594 C 201.160156 213.398438 200.960938 213.542969 200.925781 213.753906 " fill-opacity="1" fill-rule="nonzero"/><path fill="#472420" d="M 210.804688 214.296875 L 209.691406 221.019531 C 209.65625 221.230469 209.800781 221.433594 210.011719 221.46875 C 210.222656 221.503906 210.425781 221.359375 210.460938 221.148438 L 211.574219 214.425781 C 211.609375 214.214844 211.464844 214.011719 211.25 213.976562 C 211.039062 213.941406 210.839844 214.085938 210.804688 214.296875 " fill-opacity="1" fill-rule="nonzero"/><path fill="#472420" d="M 221.132812 214.597656 L 219.910156 220.445312 C 219.867188 220.65625 220.003906 220.863281 220.214844 220.910156 C 220.425781 220.953125 220.628906 220.816406 220.675781 220.605469 L 221.894531 214.757812 C 221.9375 214.546875 221.804688 214.339844 221.59375 214.296875 C 221.382812 214.25 221.175781 214.386719 221.132812 214.597656 " fill-opacity="1" fill-rule="nonzero"/><path fill="#472420" d="M 231.238281 214.5625 L 230.019531 220.449219 C 229.972656 220.660156 230.109375 220.863281 230.320312 220.910156 C 230.53125 220.953125 230.738281 220.816406 230.78125 220.605469 L 232.003906 214.71875 C 232.046875 214.511719 231.910156 214.300781 231.703125 214.257812 C 231.492188 214.214844 231.285156 214.351562 231.238281 214.5625 " fill-opacity="1" fill-rule="nonzero"/><path fill="#903ea3" d="M 186.914062 124.449219 C 186.914062 124.449219 172.835938 121.625 167.839844 123.332031 C 161.890625 125.367188 161.175781 161.558594 161.175781 161.558594 C 161.175781 161.558594 148.324219 208.171875 152.128906 214.480469 C 155.9375 220.789062 231.53125 224.0625 240.855469 219.980469 C 240.855469 219.980469 240.855469 195.863281 227.542969 163.042969 C 227.542969 163.042969 225.925781 132.738281 219.109375 128.898438 C 212.292969 125.0625 205.460938 124.078125 201.535156 124.449219 C 197.609375 124.820312 186.914062 124.449219 186.914062 124.449219 " fill-opacity="1" fill-rule="nonzero"/><path fill="#7b338d" d="M 240.855469 219.980469 C 240.855469 219.980469 240.855469 218.78125 240.707031 216.5625 C 223.980469 216.882812 170.960938 216.347656 167.839844 196.964844 C 164.132812 173.925781 175.988281 152.519531 171.175781 148.289062 C 169.710938 147 166.007812 148.953125 161.570312 152.28125 C 161.253906 157.621094 161.175781 161.558594 161.175781 161.558594 C 161.175781 161.558594 148.324219 208.171875 152.128906 214.480469 C 155.9375 220.789062 231.53125 224.0625 240.855469 219.980469 " fill-opacity="1" fill-rule="nonzero"/><path fill="#e47b5f" d="M 202.261719 114.796875 L 206.25 125.558594 C 206.25 125.558594 209.746094 128.453125 209.265625 131.703125 C 206.667969 149.320312 188.011719 137.207031 185.183594 126.300781 C 185.183594 126.300781 187.917969 119.25 188.417969 114.796875 L 202.261719 114.796875 " fill-opacity="1" fill-rule="nonzero"/><path fill="#c6614f" d="M 207.558594 126.917969 L 202.261719 114.796875 L 188.417969 114.796875 C 188.203125 116.726562 186.5 122.367188 185.847656 124.492188 C 193.140625 134.773438 206.355469 133.0625 207.558594 126.917969 " fill-opacity="1" fill-rule="nonzero"/><path fill="#e0775b" d="M 229.582031 86.019531 C 226.933594 90.140625 226.855469 95.523438 229.402344 98.042969 C 231.953125 100.558594 236.167969 99.257812 238.816406 95.136719 C 241.464844 91.015625 241.542969 85.632812 238.996094 83.113281 C 236.445312 80.597656 232.230469 81.898438 229.582031 86.019531 " fill-opacity="1" fill-rule="nonzero"/><path fill="#e4795b" d="M 233.90625 97.109375 C 230.34375 97.847656 230.136719 93.773438 230.136719 93.773438 C 230.363281 93.941406 232.738281 94.847656 233.617188 93.066406 C 234.496094 91.28125 231.4375 89.933594 231.4375 89.933594 C 231.757812 88.789062 233.269531 84.5625 236.480469 85.308594 C 239.695312 86.054688 238.800781 90.652344 238.800781 90.652344 C 238.800781 90.652344 238.40625 96.179688 233.90625 97.109375 " fill-opacity="1" fill-rule="nonzero"/><path fill="#aa503c" d="M 239.09375 90.710938 C 239.09375 90.699219 239.214844 90.089844 239.214844 89.269531 C 239.210938 88.535156 239.121094 87.625 238.746094 86.8125 C 238.371094 85.996094 237.675781 85.273438 236.550781 85.015625 C 236.273438 84.953125 236.003906 84.921875 235.742188 84.921875 C 235 84.921875 234.34375 85.175781 233.796875 85.5625 C 232.164062 86.738281 231.386719 89.03125 231.152344 89.851562 C 231.113281 89.996094 231.183594 90.144531 231.320312 90.207031 L 231.410156 90.25 C 231.621094 90.351562 232.164062 90.632812 232.632812 91.03125 C 233.113281 91.429688 233.484375 91.929688 233.480469 92.417969 C 233.480469 92.578125 233.441406 92.746094 233.351562 92.933594 C 233.167969 93.300781 232.929688 93.519531 232.652344 93.660156 C 232.378906 93.800781 232.058594 93.855469 231.742188 93.855469 C 231.390625 93.855469 231.046875 93.785156 230.777344 93.707031 C 230.640625 93.671875 230.527344 93.628906 230.445312 93.59375 L 230.347656 93.546875 L 230.316406 93.535156 L 230.316406 93.53125 C 230.222656 93.464844 230.101562 93.453125 229.996094 93.507812 C 229.898438 93.5625 229.835938 93.671875 229.839844 93.785156 C 229.84375 93.804688 229.886719 94.707031 230.273438 95.636719 C 230.46875 96.101562 230.753906 96.578125 231.175781 96.949219 C 231.601562 97.320312 232.175781 97.570312 232.882812 97.566406 C 233.222656 97.566406 233.589844 97.511719 233.988281 97.394531 C 234.148438 97.347656 234.238281 97.183594 234.191406 97.023438 C 234.144531 96.867188 233.980469 96.777344 233.824219 96.824219 C 233.46875 96.925781 233.15625 96.972656 232.882812 96.972656 C 232.308594 96.96875 231.902344 96.785156 231.566406 96.496094 C 231.074219 96.070312 230.773438 95.386719 230.617188 94.800781 C 230.539062 94.507812 230.492188 94.246094 230.46875 94.054688 C 230.453125 93.957031 230.449219 93.882812 230.441406 93.832031 L 230.433594 93.753906 L 230.140625 93.769531 L 229.960938 94.011719 C 230.035156 94.066406 230.105469 94.09375 230.214844 94.144531 C 230.535156 94.277344 231.105469 94.449219 231.742188 94.449219 C 232.128906 94.449219 232.539062 94.386719 232.921875 94.191406 C 233.304688 94 233.648438 93.675781 233.886719 93.195312 C 234.015625 92.9375 234.074219 92.671875 234.074219 92.417969 C 234.074219 91.96875 233.898438 91.574219 233.652344 91.238281 C 232.917969 90.246094 231.578125 89.671875 231.5625 89.660156 L 231.441406 89.933594 L 231.726562 90.011719 C 231.867188 89.507812 232.257812 88.351562 232.933594 87.347656 C 233.269531 86.84375 233.671875 86.382812 234.140625 86.050781 C 234.609375 85.722656 235.132812 85.519531 235.742188 85.519531 C 235.957031 85.519531 236.179688 85.542969 236.414062 85.597656 C 237.355469 85.820312 237.875 86.371094 238.203125 87.0625 C 238.523438 87.753906 238.617188 88.585938 238.617188 89.269531 C 238.617188 89.652344 238.589844 89.988281 238.5625 90.222656 C 238.546875 90.34375 238.535156 90.4375 238.523438 90.5 L 238.507812 90.597656 C 238.476562 90.757812 238.582031 90.914062 238.746094 90.945312 C 238.90625 90.976562 239.0625 90.871094 239.09375 90.710938 " fill-opacity="1" fill-rule="nonzero"/><path fill="#aa503c" d="M 236.675781 91.867188 C 236.683594 91.84375 237.28125 90.722656 237.285156 89.332031 C 237.285156 88.621094 237.121094 87.828125 236.625 87.105469 C 236.101562 86.324219 235.375 86.035156 234.726562 86.042969 C 233.5625 86.054688 232.609375 86.816406 232.582031 86.828125 C 232.453125 86.929688 232.429688 87.117188 232.53125 87.25 C 232.632812 87.378906 232.816406 87.402344 232.949219 87.300781 L 232.984375 87.277344 C 233.148438 87.152344 233.949219 86.632812 234.726562 86.640625 C 235.21875 86.648438 235.699219 86.8125 236.136719 87.441406 C 236.550781 88.046875 236.6875 88.707031 236.6875 89.332031 C 236.6875 89.941406 236.554688 90.511719 236.417969 90.925781 C 236.347656 91.132812 236.28125 91.300781 236.226562 91.417969 L 236.148438 91.589844 C 236.070312 91.734375 236.125 91.914062 236.273438 91.992188 C 236.417969 92.070312 236.597656 92.011719 236.675781 91.867188 " fill-opacity="1" fill-rule="nonzero"/><path fill="#e5c9b8" d="M 228.296875 100.324219 C 228.296875 100.324219 244.648438 73.351562 226.914062 48.132812 C 219.289062 37.289062 223.46875 64.582031 223.46875 64.582031 L 228.296875 100.324219 " fill-opacity="1" fill-rule="nonzero"/><path fill="#d6b1a1" d="M 231.410156 93.503906 C 239.613281 73.058594 228.984375 55.554688 222.460938 48.664062 C 221.855469 54.042969 223.46875 64.582031 223.46875 64.582031 L 228.0625 98.585938 C 229.519531 97.050781 230.664062 95.367188 231.410156 93.503906 " fill-opacity="1" fill-rule="nonzero"/><path fill="#f58f6d" d="M 154.984375 83.511719 C 154.984375 102.984375 172.449219 118.769531 193.996094 118.769531 C 215.542969 118.769531 233.007812 102.984375 233.007812 83.511719 C 233.007812 64.039062 221.558594 46.507812 193.996094 48.253906 C 172.492188 49.613281 154.984375 64.039062 154.984375 83.511719 " fill-opacity="1" fill-rule="nonzero"/><path fill="#e37e62" d="M 170.449219 99.324219 C 170.449219 99.324219 173.34375 76.054688 158.960938 68.238281 C 156.417969 72.792969 154.984375 77.945312 154.984375 83.511719 C 154.984375 102.980469 172.453125 118.769531 193.996094 118.769531 C 205.417969 118.769531 215.691406 114.332031 222.824219 107.265625 C 212.308594 113.464844 190.082031 121.980469 170.449219 99.324219 " fill-opacity="1" fill-rule="nonzero"/><path fill="#e47a5e" d="M 177.910156 87.835938 C 177.910156 90.015625 181.167969 91.777344 185.183594 91.777344 C 189.203125 91.777344 192.457031 90.015625 192.457031 87.835938 C 192.457031 85.660156 189.203125 83.894531 185.183594 83.894531 C 181.167969 83.894531 177.910156 85.660156 177.910156 87.835938 " fill-opacity="1" fill-rule="nonzero"/><path fill="#e47a5e" d="M 214.882812 86.753906 C 214.882812 88.929688 218.140625 90.695312 222.15625 90.695312 C 226.171875 90.695312 229.429688 88.929688 229.429688 86.753906 C 229.429688 84.578125 226.171875 82.8125 222.15625 82.8125 C 218.140625 82.8125 214.882812 84.578125 214.882812 86.753906 " fill-opacity="1" fill-rule="nonzero"/><path fill="#e5c9b8" d="M 191.40625 66.519531 C 191.40625 66.519531 193.765625 68.796875 191.230469 69.820312 C 188.691406 70.847656 179.71875 72.191406 178.492188 72.054688 C 178.492188 72.054688 176.40625 70.085938 180.511719 68.367188 C 184.617188 66.644531 189.6875 65.210938 191.40625 66.519531 " fill-opacity="1" fill-rule="nonzero"/><path fill="#e5c9b8" d="M 213.382812 67.757812 C 213.382812 67.757812 211.328125 70.0625 213.484375 71.050781 C 215.632812 72.03125 223.28125 73.230469 224.332031 73.074219 C 224.332031 73.074219 226.144531 71.074219 222.664062 69.421875 C 219.183594 67.769531 214.875 66.421875 213.382812 67.757812 " fill-opacity="1" fill-rule="nonzero"/><path fill="#f58f6d" d="M 159.632812 87.4375 C 162.421875 92.214844 161.324219 98.050781 157.179688 100.480469 C 153.039062 102.902344 147.417969 100.996094 144.628906 96.21875 C 141.839844 91.441406 142.9375 85.601562 147.078125 83.179688 C 151.222656 80.753906 156.84375 82.660156 159.632812 87.4375 " fill-opacity="1" fill-rule="nonzero"/><path fill="#e4795b" d="M 151.074219 98.9375 C 155.90625 100.15625 157.109375 95.765625 157.109375 95.765625 C 156.75 95.921875 153.21875 96.625 152.386719 94.589844 C 151.554688 92.554688 156.144531 91.457031 156.144531 91.457031 C 155.960938 90.179688 154.785156 85.421875 150.109375 85.851562 C 145.433594 86.277344 145.65625 91.363281 145.65625 91.363281 C 145.65625 91.363281 144.96875 97.394531 151.074219 98.9375 " fill-opacity="1" fill-rule="nonzero"/><path fill="#aa503c" d="M 146.027344 91.34375 L 146.027344 91.253906 C 146.023438 90.914062 146.074219 89.703125 146.617188 88.578125 C 146.886719 88.015625 147.273438 87.472656 147.835938 87.050781 C 148.398438 86.625 149.136719 86.308594 150.144531 86.214844 C 150.332031 86.199219 150.515625 86.191406 150.691406 86.191406 C 152.648438 86.199219 153.832031 87.195312 154.613281 88.378906 C 155.386719 89.566406 155.695312 90.933594 155.777344 91.507812 L 156.144531 91.453125 L 156.058594 91.09375 C 156.046875 91.097656 155.066406 91.332031 154.058594 91.796875 C 153.554688 92.027344 153.046875 92.320312 152.640625 92.6875 C 152.238281 93.050781 151.917969 93.523438 151.914062 94.101562 C 151.914062 94.308594 151.957031 94.519531 152.042969 94.730469 C 152.320312 95.40625 152.859375 95.835938 153.453125 96.070312 C 154.042969 96.308594 154.695312 96.378906 155.289062 96.382812 C 155.757812 96.382812 156.191406 96.335938 156.53125 96.28125 C 156.703125 96.253906 156.851562 96.222656 156.96875 96.195312 C 157.089844 96.164062 157.175781 96.140625 157.257812 96.105469 L 157.109375 95.765625 L 156.753906 95.667969 L 156.742188 95.695312 C 156.695312 95.859375 156.417969 96.683594 155.804688 97.4375 C 155.191406 98.191406 154.28125 98.871094 152.878906 98.875 C 152.386719 98.875 151.824219 98.789062 151.191406 98.582031 C 150.996094 98.519531 150.785156 98.625 150.722656 98.820312 C 150.660156 99.015625 150.765625 99.226562 150.960938 99.289062 C 151.660156 99.515625 152.296875 99.617188 152.878906 99.617188 C 154.65625 99.621094 155.832031 98.65625 156.519531 97.730469 C 157.210938 96.796875 157.457031 95.890625 157.46875 95.863281 C 157.503906 95.726562 157.460938 95.578125 157.351562 95.488281 C 157.246094 95.390625 157.09375 95.367188 156.960938 95.425781 C 156.960938 95.425781 156.894531 95.449219 156.796875 95.472656 C 156.5 95.542969 155.917969 95.636719 155.289062 95.636719 C 154.757812 95.636719 154.1875 95.570312 153.726562 95.382812 C 153.265625 95.191406 152.917969 94.910156 152.730469 94.449219 C 152.675781 94.320312 152.65625 94.207031 152.65625 94.101562 C 152.65625 93.820312 152.816406 93.53125 153.136719 93.234375 C 153.613281 92.800781 154.398438 92.429688 155.054688 92.1875 C 155.382812 92.0625 155.679688 91.96875 155.894531 91.90625 C 156 91.878906 156.085938 91.851562 156.144531 91.835938 L 156.230469 91.8125 C 156.417969 91.769531 156.539062 91.589844 156.511719 91.398438 C 156.414062 90.75 156.09375 89.304688 155.234375 87.976562 C 154.382812 86.652344 152.925781 85.445312 150.691406 85.449219 C 150.492188 85.449219 150.285156 85.457031 150.074219 85.476562 C 148.949219 85.578125 148.0625 85.945312 147.390625 86.457031 C 146.378906 87.222656 145.855469 88.285156 145.582031 89.214844 C 145.3125 90.144531 145.285156 90.949219 145.285156 91.253906 L 145.289062 91.382812 C 145.296875 91.589844 145.472656 91.746094 145.679688 91.734375 C 145.882812 91.722656 146.039062 91.550781 146.027344 91.34375 " fill-opacity="1" fill-rule="nonzero"/><path fill="#aa503c" d="M 149.109375 92.660156 L 149.097656 92.632812 C 149.039062 92.496094 148.785156 91.820312 148.785156 90.992188 C 148.789062 90.132812 149.039062 89.132812 150.050781 88.273438 C 150.710938 87.71875 151.378906 87.535156 152.027344 87.535156 C 152.738281 87.53125 153.414062 87.769531 153.910156 88.011719 C 154.15625 88.128906 154.359375 88.25 154.496094 88.34375 L 154.65625 88.449219 L 154.695312 88.476562 L 154.703125 88.484375 C 154.863281 88.609375 155.097656 88.578125 155.222656 88.417969 C 155.347656 88.257812 155.320312 88.023438 155.160156 87.898438 C 155.125 87.882812 153.769531 86.800781 152.027344 86.792969 C 151.238281 86.789062 150.363281 87.03125 149.570312 87.703125 C 148.371094 88.71875 148.039062 89.988281 148.042969 90.992188 C 148.046875 92.109375 148.421875 92.9375 148.433594 92.964844 C 148.515625 93.152344 148.734375 93.234375 148.921875 93.148438 C 149.109375 93.0625 149.191406 92.84375 149.109375 92.660156 " fill-opacity="1" fill-rule="nonzero"/><path fill="#aa503c" d="M 205.789062 74.402344 C 205.785156 74.425781 204.433594 77.996094 204.429688 81.53125 C 204.429688 82.878906 204.625 84.230469 205.195312 85.382812 C 205.238281 85.472656 205.316406 85.539062 205.414062 85.570312 C 205.507812 85.605469 205.609375 85.59375 205.699219 85.546875 L 205.71875 85.535156 C 205.839844 85.480469 206.453125 85.210938 207.234375 85.210938 C 207.921875 85.214844 208.738281 85.40625 209.542969 86.144531 C 209.894531 86.457031 210.226562 87.160156 210.222656 87.898438 C 210.21875 88.601562 209.957031 89.328125 209.183594 89.917969 C 208.410156 90.511719 207.078125 90.960938 204.9375 90.960938 C 204.800781 90.960938 204.664062 90.957031 204.527344 90.957031 C 204.324219 90.949219 204.152344 91.113281 204.148438 91.316406 C 204.144531 91.523438 204.304688 91.695312 204.511719 91.699219 C 204.652344 91.703125 204.796875 91.703125 204.9375 91.703125 C 207.175781 91.703125 208.671875 91.238281 209.632812 90.511719 C 210.59375 89.785156 210.96875 88.796875 210.964844 87.898438 C 210.957031 86.949219 210.582031 86.097656 210.042969 85.59375 C 209.097656 84.726562 208.066406 84.464844 207.234375 84.46875 C 206.152344 84.472656 205.386719 84.875 205.355469 84.890625 L 205.527344 85.21875 L 205.859375 85.054688 C 205.359375 84.050781 205.167969 82.808594 205.167969 81.53125 C 205.167969 79.859375 205.496094 78.132812 205.828125 76.832031 C 205.992188 76.183594 206.15625 75.636719 206.28125 75.257812 C 206.34375 75.070312 206.394531 74.917969 206.429688 74.816406 C 206.464844 74.714844 206.484375 74.664062 206.484375 74.664062 C 206.554688 74.476562 206.460938 74.261719 206.265625 74.1875 C 206.074219 74.117188 205.863281 74.210938 205.789062 74.402344 " fill-opacity="1" fill-rule="nonzero"/><path fill="#aa503c" d="M 208.515625 104.484375 L 208.515625 104.488281 C 208.457031 104.554688 206.875 106.714844 201.714844 106.71875 C 201.53125 106.71875 201.382812 106.867188 201.382812 107.046875 C 201.382812 107.230469 201.53125 107.375 201.714844 107.375 C 207.238281 107.382812 209.011719 104.933594 209.054688 104.859375 C 209.15625 104.710938 209.121094 104.507812 208.972656 104.402344 C 208.824219 104.300781 208.621094 104.339844 208.515625 104.488281 L 208.515625 104.484375 " fill-opacity="1" fill-rule="nonzero"/><path fill="#aa503c" d="M 196.703125 92.238281 C 196.683594 92.265625 191.828125 97.15625 191.820312 104.054688 C 191.820312 104.265625 191.824219 104.476562 191.832031 104.6875 C 191.84375 104.871094 191.996094 105.011719 192.175781 105 C 192.359375 104.996094 192.496094 104.839844 192.488281 104.660156 C 192.480469 104.453125 192.476562 104.253906 192.476562 104.054688 C 192.476562 100.765625 193.648438 97.921875 194.824219 95.898438 C 195.414062 94.890625 196.003906 94.085938 196.445312 93.539062 C 196.664062 93.261719 196.847656 93.050781 196.972656 92.910156 L 197.121094 92.75 L 197.167969 92.703125 C 197.296875 92.570312 197.296875 92.363281 197.167969 92.238281 C 197.039062 92.109375 196.828125 92.109375 196.703125 92.238281 " fill-opacity="1" fill-rule="nonzero"/><path fill="#aa503c" d="M 210.378906 91.808594 C 210.378906 91.808594 210.433594 91.875 210.53125 92.007812 C 211.242188 92.925781 214.089844 96.957031 214.078125 100.957031 C 214.078125 101.136719 214.226562 101.285156 214.410156 101.285156 C 214.589844 101.285156 214.738281 101.136719 214.738281 100.957031 C 214.734375 98.496094 213.765625 96.117188 212.808594 94.34375 C 211.847656 92.570312 210.894531 91.402344 210.886719 91.390625 C 210.769531 91.25 210.5625 91.230469 210.421875 91.347656 C 210.285156 91.460938 210.261719 91.667969 210.378906 91.808594 " fill-opacity="1" fill-rule="nonzero"/><path fill="#e5c9b8" d="M 152.128906 82.199219 C 152.128906 82.199219 158.195312 83.367188 159.632812 87.4375 C 161.066406 91.503906 164.230469 85.273438 165.207031 78.992188 C 166.183594 72.710938 170.824219 60.980469 176.679688 59.019531 C 182.539062 57.066406 209.617188 64.597656 220.371094 54.84375 C 220.371094 54.84375 229.859375 59.945312 232.445312 76.230469 C 232.445312 76.230469 237.742188 18.882812 177.960938 34.28125 C 177.960938 34.28125 132.976562 44.109375 147.082031 83.175781 C 147.082031 83.175781 149.5625 81.464844 152.128906 82.199219 " fill-opacity="1" fill-rule="nonzero"/><path fill="#801537" d="M 224.332031 262.617188 C 221.628906 253.539062 201.820312 247.539062 201.820312 247.539062 L 216.195312 283.871094 L 221.660156 333.566406 C 221.660156 333.566406 226.707031 335.1875 228.359375 335.734375 C 228.605469 319.59375 225.042969 265 224.332031 262.617188 " fill-opacity="1" fill-rule="nonzero"/><path fill="#903ea3" d="M 167.839844 123.332031 C 167.839844 123.332031 141.578125 121.167969 130.34375 127.707031 C 119.113281 134.242188 109.382812 167.304688 109.121094 172.285156 C 109.121094 172.285156 115.839844 179.992188 122.675781 176.566406 L 141.375 147.886719 C 141.375 147.886719 161.726562 156.363281 167.839844 154.777344 C 173.953125 153.195312 177.011719 130.511719 167.839844 123.332031 " fill-opacity="1" fill-rule="nonzero"/><path fill="#38251d" d="M 202.820312 99.324219 C 202.820312 101.117188 203.90625 102.574219 205.25 102.574219 C 206.589844 102.574219 207.675781 101.117188 207.675781 99.324219 C 207.675781 97.53125 206.589844 96.078125 205.25 96.078125 C 203.90625 96.078125 202.820312 97.53125 202.820312 99.324219 " fill-opacity="1" fill-rule="nonzero"/><path fill="#38251d" d="M 185.253906 83.535156 C 185.75 85.703125 187.210938 87.21875 188.519531 86.921875 C 189.832031 86.621094 190.496094 84.621094 190.003906 82.453125 C 189.511719 80.285156 188.046875 78.769531 186.738281 79.070312 C 185.425781 79.367188 184.765625 81.367188 185.253906 83.535156 " fill-opacity="1" fill-rule="nonzero"/><path fill="#38251d" d="M 216.609375 82.605469 C 217.042969 84.527344 218.246094 85.890625 219.289062 85.652344 C 220.332031 85.414062 220.824219 83.664062 220.390625 81.742188 C 219.949219 79.824219 218.75 78.457031 217.707031 78.695312 C 216.664062 78.933594 216.171875 80.683594 216.609375 82.605469 " fill-opacity="1" fill-rule="nonzero"/><path fill="#472420" d="M 218.472656 171.875 C 218.472656 171.875 217.886719 172.128906 216.828125 172.582031 C 213.128906 174.167969 203.683594 178.171875 193.675781 182.058594 C 183.667969 185.945312 173.070312 189.722656 167.148438 190.847656 C 166.902344 190.894531 166.742188 191.128906 166.789062 191.371094 C 166.835938 191.613281 167.070312 191.773438 167.3125 191.726562 C 174.242188 190.40625 187.089844 185.652344 198.246094 181.226562 C 209.394531 176.796875 218.828125 172.699219 218.832031 172.699219 C 219.054688 172.597656 219.160156 172.335938 219.0625 172.109375 C 218.964844 171.878906 218.699219 171.777344 218.472656 171.875 " fill-opacity="1" fill-rule="nonzero"/><path fill="#472420" d="M 214.152344 179.929688 C 214.148438 179.933594 213.695312 180.25 212.867188 180.816406 C 209.96875 182.796875 202.511719 187.777344 194.207031 192.457031 C 185.914062 197.140625 176.742188 201.515625 170.546875 202.296875 C 170.304688 202.328125 170.128906 202.554688 170.160156 202.800781 C 170.191406 203.042969 170.417969 203.21875 170.660156 203.1875 C 174.359375 202.714844 178.929688 201.066406 183.738281 198.867188 C 198.148438 192.265625 214.652344 180.671875 214.664062 180.664062 C 214.867188 180.523438 214.917969 180.242188 214.773438 180.039062 C 214.632812 179.839844 214.351562 179.789062 214.152344 179.929688 " fill-opacity="1" fill-rule="nonzero"/><path fill="#472420" d="M 168.121094 155.125 C 168.1875 155.078125 173.027344 151.121094 173.023438 141.644531 C 173.023438 136.90625 171.820312 130.808594 168.246094 123.144531 C 168.140625 122.917969 167.875 122.820312 167.652344 122.925781 C 167.425781 123.03125 167.328125 123.296875 167.433594 123.523438 C 170.964844 131.09375 172.128906 137.0625 172.128906 141.644531 C 172.128906 146.226562 170.96875 149.425781 169.816406 151.484375 C 169.242188 152.511719 168.667969 153.257812 168.246094 153.738281 C 168.03125 153.980469 167.855469 154.15625 167.734375 154.269531 L 167.597656 154.394531 L 167.566406 154.421875 L 167.558594 154.429688 C 167.367188 154.585938 167.335938 154.867188 167.492188 155.058594 C 167.648438 155.253906 167.929688 155.28125 168.121094 155.125 " fill-opacity="1" fill-rule="nonzero"/><path fill="#472420" d="M 177.519531 126.589844 C 177.519531 126.589844 177.554688 126.839844 177.613281 127.304688 C 177.777344 128.699219 178.113281 132.003906 178.113281 135.984375 C 178.117188 140.777344 177.625 146.558594 175.796875 151.167969 C 174.882812 153.472656 173.644531 155.476562 171.984375 156.9375 C 170.328125 158.398438 168.257812 159.332031 165.605469 159.492188 C 165.355469 159.507812 165.167969 159.722656 165.183594 159.96875 C 165.199219 160.214844 165.410156 160.40625 165.660156 160.390625 C 168.492188 160.222656 170.785156 159.199219 172.578125 157.613281 C 175.269531 155.230469 176.863281 151.628906 177.800781 147.734375 C 178.734375 143.835938 179.011719 139.625 179.011719 135.984375 C 179.011719 130.609375 178.40625 126.472656 178.40625 126.460938 C 178.367188 126.214844 178.140625 126.046875 177.898438 126.082031 C 177.652344 126.117188 177.484375 126.34375 177.519531 126.589844 " fill-opacity="1" fill-rule="nonzero"/></svg>