<svg xmlns="http://www.w3.org/2000/svg" xmlns:xlink="http://www.w3.org/1999/xlink" width="500" zoomAndPan="magnify" viewBox="0 0 375 374.999991" height="500" preserveAspectRatio="xMidYMid meet" version="1.0"><defs><clipPath id="72984c2460"><path d="M 70 39 L 305 39 L 305 335.855469 L 70 335.855469 Z M 70 39 " clip-rule="nonzero"/></clipPath><clipPath id="6a727a6f8a"><path d="M 73 39 L 305 39 L 305 335.855469 L 73 335.855469 Z M 73 39 " clip-rule="nonzero"/></clipPath><clipPath id="7c39387f56"><path d="M 81 39 L 305 39 L 305 335.855469 L 81 335.855469 Z M 81 39 " clip-rule="nonzero"/></clipPath></defs><g clip-path="url(#72984c2460)"><path fill="#fbfaf8" d="M 304.21875 335.105469 C 304.226562 335.148438 304.238281 335.183594 304.242188 335.226562 C 304.277344 335.464844 304.117188 335.6875 303.878906 335.722656 C 303.851562 335.730469 303.828125 335.730469 303.8125 335.730469 C 303.703125 335.730469 303.601562 335.6875 303.523438 335.613281 C 303.351562 335.679688 303.15625 335.722656 302.949219 335.722656 C 302.816406 335.722656 302.582031 335.722656 302.257812 335.722656 C 302.175781 335.8125 302.066406 335.871094 301.941406 335.871094 C 301.910156 335.871094 301.875 335.867188 301.84375 335.859375 C 301.753906 335.84375 301.683594 335.789062 301.628906 335.722656 C 301.046875 335.722656 300.308594 335.722656 299.445312 335.722656 C 299.375 335.769531 299.296875 335.800781 299.207031 335.800781 C 299.140625 335.800781 299.074219 335.78125 299.015625 335.753906 C 298.996094 335.746094 298.992188 335.730469 298.972656 335.722656 C 291.046875 335.722656 274 335.722656 269.382812 335.722656 C 263.550781 335.722656 264.773438 329.023438 263.191406 325.636719 C 261.605469 322.25 258.84375 317.183594 258.84375 317.183594 C 258.84375 317.183594 243.476562 292.78125 239.058594 285.480469 C 236.207031 280.765625 232 271.09375 228.179688 263.070312 C 226.082031 258.664062 224.101562 254.746094 222.539062 252.433594 C 218.121094 245.902344 199.296875 217.460938 196.988281 214.199219 C 194.6875 210.933594 192.1875 208.246094 191.035156 207.671875 C 189.882812 207.09375 176.820312 218.429688 173.9375 228.808594 C 171.054688 239.179688 166.25 252.246094 160.105469 264.355469 C 159.339844 265.890625 159.914062 264.257812 158.832031 266.867188 C 151.550781 281.1875 133.597656 316.425781 133.597656 316.425781 C 133.597656 316.425781 130.425781 325.074219 129.996094 328.460938 C 129.5625 331.847656 128.269531 334.296875 124.015625 334.296875 C 119.765625 334.296875 97.722656 334.296875 95.0625 334.296875 C 92.398438 334.296875 91.316406 333.359375 91.601562 331.410156 C 91.890625 329.46875 96.5 328.742188 101.398438 327.519531 C 106.296875 326.296875 111.84375 322.332031 113 318.511719 C 114.148438 314.695312 115.15625 311.425781 115.15625 311.425781 L 120.695312 287.296875 L 140.355469 201.644531 C 139.011719 201.03125 138.351562 200.566406 138.351562 200.566406 C 131.871094 203.878906 130.425781 208.347656 123.65625 219.152344 C 123.515625 219.382812 123.363281 219.597656 123.214844 219.8125 L 123.226562 219.871094 C 123.226562 219.871094 123.148438 220.484375 123.011719 221.589844 C 123.011719 221.601562 123.003906 221.613281 123.003906 221.628906 C 122.960938 221.972656 122.910156 222.375 122.855469 222.804688 C 122.84375 222.894531 122.832031 222.992188 122.820312 223.082031 C 122.765625 223.5 122.710938 223.9375 122.644531 224.429688 C 120.640625 240.085938 114.113281 291.183594 113.136719 297.386719 C 111.984375 304.738281 112.417969 311.367188 110.109375 314.105469 C 107.800781 316.847656 103.339844 321.746094 101.03125 323.472656 C 98.726562 325.199219 97 323.902344 97 323.902344 C 97 323.902344 94.839844 324.480469 91.957031 325.34375 C 89.851562 325.972656 88.28125 326.601562 86.523438 326.332031 C 86.453125 326.386719 86.363281 326.421875 86.265625 326.421875 C 86.242188 326.421875 86.21875 326.421875 86.195312 326.417969 C 86.0625 326.390625 85.957031 326.308594 85.894531 326.199219 C 85.441406 326.074219 84.964844 325.894531 84.46875 325.628906 C 84.320312 325.554688 84.179688 325.480469 84.054688 325.414062 C 84.050781 325.414062 84.042969 325.414062 84.039062 325.414062 C 84.011719 325.414062 83.988281 325.414062 83.972656 325.410156 C 83.84375 325.390625 83.75 325.320312 83.683594 325.222656 C 82.304688 324.539062 82.027344 324.519531 81.832031 324.058594 C 81.707031 324 81.609375 323.878906 81.589844 323.722656 C 81.585938 323.695312 81.578125 323.566406 81.609375 323.363281 C 81.601562 323.347656 81.597656 323.335938 81.597656 323.316406 C 81.164062 321.878906 82.171875 320.71875 84.335938 319.136719 C 86.496094 317.554688 92.550781 312.796875 95.285156 310.203125 C 98.023438 307.605469 98.886719 302.5625 99.03125 298.820312 C 99.175781 295.074219 100.324219 231.378906 100.324219 231.378906 C 100.324219 231.378906 100.324219 211.351562 100.324219 196.503906 C 100.324219 186.339844 100.054688 180.367188 101.546875 174.234375 C 101.445312 174.257812 101.339844 174.292969 101.238281 174.3125 C 96.53125 175.175781 95.09375 170.277344 91.152344 171.8125 C 87.214844 173.347656 81.742188 171.332031 80.300781 166.144531 C 78.863281 160.957031 81.644531 156.058594 76.074219 154.714844 C 70.507812 153.375 69.0625 147.222656 70.792969 141.746094 C 72.519531 136.273438 73.292969 134.058594 73.484375 128.871094 C 73.679688 123.683594 79.152344 119.9375 82.324219 118.976562 C 85.492188 118.019531 85.78125 113.214844 89.71875 111.578125 C 93.660156 109.949219 97.117188 111.769531 100.570312 112.152344 C 104.03125 112.539062 105.949219 108.503906 112.484375 109.175781 C 119.011719 109.84375 117.957031 116.285156 123.8125 118.300781 C 127.195312 119.464844 129.261719 121.207031 130.257812 123.34375 C 138.371094 111.417969 154.644531 91.304688 154.644531 91.304688 C 154.644531 91.304688 155.542969 92.886719 157.132812 95.695312 L 154.644531 91.304688 C 155.222656 90.152344 170.585938 71.035156 171.933594 68.34375 C 173.277344 65.652344 174.914062 63.636719 174.820312 58.835938 C 174.722656 54.03125 175.585938 44.714844 175.96875 42.117188 C 176.351562 39.519531 177.601562 40.007812 177.601562 40.007812 C 177.601562 40.007812 178.65625 39.140625 179.519531 40.007812 C 179.519531 40.007812 180.332031 38.925781 181.878906 39.914062 C 181.945312 39.878906 182.011719 39.855469 182.097656 39.855469 C 182.164062 39.855469 182.222656 39.875 182.277344 39.898438 C 182.730469 39.734375 183.65625 39.527344 183.941406 40.390625 C 184.328125 41.539062 184.328125 42.40625 184.613281 45 C 184.902344 47.597656 185.574219 51.625 186.148438 52.496094 C 186.722656 53.359375 187.78125 52.976562 188.066406 50.480469 C 188.355469 47.980469 188.355469 46.828125 189.410156 46.734375 C 190.464844 46.636719 189.984375 47.980469 189.984375 49.714844 C 189.984375 51.445312 189.699219 56.632812 188.546875 59.800781 C 187.394531 62.972656 186.046875 65.464844 183.9375 68.925781 C 181.832031 72.367188 165.375 109.558594 165.214844 109.933594 C 165.710938 110.8125 166.222656 111.710938 166.75 112.632812 C 173.210938 124.007812 169.703125 135.71875 168.914062 138.015625 L 168.917969 138.023438 C 169.148438 138.105469 169.253906 138.359375 169.171875 138.585938 L 200.316406 150.535156 C 200.316406 150.535156 200.386719 150.78125 200.5 151.226562 C 203.046875 152.066406 206.417969 153.222656 210.835938 154.8125 C 225.242188 160 236.960938 183.628906 244.640625 208.035156 C 249.5625 223.667969 260.953125 261.300781 268.5 286.332031 C 272.734375 300.367188 275.761719 310.441406 275.761719 310.441406 C 277.511719 316.226562 279.773438 320.070312 283.304688 322.882812 C 286.769531 325.644531 298.992188 330.003906 302.359375 331.175781 C 302.527344 331.136719 302.707031 331.195312 302.816406 331.339844 C 302.816406 331.339844 302.828125 331.355469 302.835938 331.363281 C 304.792969 332.246094 305 334.121094 304.21875 335.105469 Z M 304.21875 335.105469 " fill-opacity="1" fill-rule="nonzero"/></g><path fill="#fcb2c7" d="M 275.742188 310.453125 L 258.835938 317.175781 C 258.835938 317.175781 243.472656 292.777344 239.054688 285.472656 C 236.199219 280.761719 231.992188 271.085938 228.171875 263.066406 L 268.484375 286.335938 C 272.714844 300.386719 275.742188 310.453125 275.742188 310.453125 Z M 115.15625 311.417969 L 133.597656 316.414062 C 133.597656 316.414062 151.550781 281.171875 158.828125 266.855469 L 120.691406 287.289062 Z M 177.964844 152.859375 C 177.167969 152.859375 176.527344 153.503906 176.527344 154.296875 C 176.527344 155.09375 177.175781 155.734375 177.964844 155.734375 C 178.761719 155.734375 179.40625 155.089844 179.40625 154.296875 C 179.410156 153.503906 178.761719 152.859375 177.964844 152.859375 Z M 157.941406 197.816406 C 157.144531 197.816406 156.503906 198.464844 156.503906 199.257812 C 156.503906 200.054688 157.152344 200.695312 157.941406 200.695312 C 158.738281 200.695312 159.382812 200.050781 159.382812 199.257812 C 159.382812 198.460938 158.738281 197.816406 157.941406 197.816406 Z M 142.671875 139.457031 C 143.472656 139.457031 144.113281 138.808594 144.113281 138.015625 C 144.113281 137.21875 143.464844 136.578125 142.671875 136.578125 C 141.875 136.578125 141.234375 137.226562 141.234375 138.015625 C 141.230469 138.808594 141.875 139.457031 142.671875 139.457031 Z M 165 130.808594 C 164.203125 130.808594 163.558594 131.457031 163.558594 132.246094 C 163.558594 133.046875 164.207031 133.6875 165 133.6875 C 165.796875 133.6875 166.4375 133.039062 166.4375 132.246094 C 166.445312 131.457031 165.796875 130.808594 165 130.808594 Z M 152.324219 112.652344 C 153.121094 112.652344 153.765625 112.003906 153.765625 111.210938 C 153.765625 110.414062 153.117188 109.773438 152.324219 109.773438 C 151.527344 109.773438 150.886719 110.421875 150.886719 111.210938 C 150.878906 112.011719 151.527344 112.652344 152.324219 112.652344 Z M 151.605469 162.511719 C 152.402344 162.511719 153.046875 161.863281 153.046875 161.074219 C 153.046875 160.273438 152.398438 159.632812 151.605469 159.632812 C 150.808594 159.632812 150.167969 160.28125 150.167969 161.074219 C 150.160156 161.871094 150.808594 162.511719 151.605469 162.511719 Z M 119.480469 178.652344 C 120.277344 178.652344 120.917969 178.007812 120.917969 177.214844 C 120.917969 176.417969 120.269531 175.777344 119.480469 175.777344 C 118.683594 175.777344 118.039062 176.421875 118.039062 177.214844 C 118.035156 178.007812 118.683594 178.652344 119.480469 178.652344 Z M 196.261719 171.160156 C 195.464844 171.160156 194.824219 171.804688 194.824219 172.597656 C 194.824219 173.390625 195.472656 174.035156 196.261719 174.035156 C 197.058594 174.035156 197.703125 173.390625 197.703125 172.597656 C 197.703125 171.804688 197.058594 171.160156 196.261719 171.160156 Z M 170.476562 174.90625 C 169.679688 174.90625 169.039062 175.554688 169.039062 176.34375 C 169.039062 177.144531 169.6875 177.785156 170.476562 177.785156 C 171.277344 177.785156 171.917969 177.136719 171.917969 176.34375 C 171.917969 175.546875 171.269531 174.90625 170.476562 174.90625 Z M 118.898438 206.609375 C 118.898438 207.40625 119.546875 208.046875 120.335938 208.046875 C 121.132812 208.046875 121.777344 207.402344 121.777344 206.609375 C 121.777344 205.8125 121.128906 205.167969 120.335938 205.167969 C 119.546875 205.164062 118.898438 205.8125 118.898438 206.609375 Z M 104.953125 190.777344 C 104.15625 190.777344 103.515625 191.425781 103.515625 192.21875 C 103.515625 193.015625 104.164062 193.65625 104.953125 193.65625 C 105.75 193.65625 106.390625 193.007812 106.390625 192.21875 C 106.390625 191.425781 105.746094 190.777344 104.953125 190.777344 Z M 104.953125 190.777344 " fill-opacity="1" fill-rule="nonzero"/><g clip-path="url(#6a727a6f8a)"><path fill="#b46449" d="M 189.972656 49.730469 C 189.972656 51.460938 189.6875 56.652344 188.535156 59.816406 C 187.382812 62.988281 186.035156 65.484375 183.925781 68.945312 C 181.816406 72.402344 165.195312 109.964844 165.195312 109.964844 L 154.632812 91.328125 C 155.210938 90.175781 170.574219 71.0625 171.921875 68.367188 C 173.265625 65.675781 174.902344 63.660156 174.804688 58.859375 C 174.710938 54.054688 175.574219 44.738281 175.957031 42.140625 C 176.339844 39.542969 177.589844 40.03125 177.589844 40.03125 C 177.589844 40.03125 178.644531 39.167969 179.507812 40.03125 C 179.507812 40.03125 180.371094 38.878906 182.007812 40.03125 C 182.007812 40.03125 183.542969 39.261719 183.925781 40.414062 C 184.308594 41.566406 184.308594 42.429688 184.597656 45.023438 C 184.882812 47.621094 185.554688 51.652344 186.132812 52.519531 C 186.707031 53.382812 187.761719 53 188.050781 50.503906 C 188.335938 48.003906 188.335938 46.855469 189.390625 46.757812 C 190.453125 46.65625 189.972656 48 189.972656 49.730469 Z M 121.878906 139.457031 C 119.957031 135.132812 118.515625 124.855469 118.417969 124.472656 C 118.324219 124.085938 111.984375 112.84375 108.910156 113.90625 C 105.835938 114.960938 80.195312 122.9375 79.90625 123.800781 C 79.617188 124.664062 72.222656 125.140625 73.953125 133.5 C 75.574219 141.332031 83.675781 154.554688 84.703125 156.199219 C 84.628906 156.347656 84.515625 156.671875 84.332031 157.332031 C 83.753906 159.34375 82.605469 160.214844 83.753906 162.421875 C 84.90625 164.628906 84.714844 164.246094 85.578125 164.722656 C 86.441406 165.203125 92.296875 166.835938 92.296875 166.835938 C 92.296875 166.835938 97.101562 168.464844 99.019531 167.121094 C 100.9375 165.78125 101.902344 165.683594 102.285156 165.394531 C 102.667969 165.109375 104.109375 164.722656 104.109375 164.722656 C 104.109375 164.722656 111.027344 165.203125 113.710938 163.765625 C 113.710938 163.765625 138.105469 172.316406 138.105469 172.027344 C 138.105469 171.738281 123.605469 150.699219 123.605469 150.699219 C 123.605469 150.699219 123.796875 143.777344 121.878906 139.457031 Z M 97.003906 323.902344 C 97.003906 323.902344 98.730469 325.199219 101.039062 323.472656 C 103.339844 321.746094 107.808594 316.847656 110.117188 314.105469 C 112.421875 311.367188 111.984375 304.738281 113.144531 297.386719 C 114.292969 290.035156 123.226562 219.859375 123.226562 219.859375 C 123.226562 219.859375 110.691406 231.242188 100.320312 231.390625 C 100.320312 231.390625 99.167969 295.085938 99.023438 298.832031 C 98.878906 302.582031 98.015625 307.625 95.277344 310.214844 C 92.539062 312.8125 86.488281 317.566406 84.332031 319.148438 C 82.171875 320.730469 81.160156 321.890625 81.589844 323.328125 C 82.023438 324.765625 81.734375 324.191406 84.476562 325.636719 C 87.214844 327.074219 89.085938 326.210938 91.96875 325.347656 C 94.839844 324.480469 97.003906 323.902344 97.003906 323.902344 Z M 112.992188 318.5 C 111.84375 322.320312 106.296875 326.285156 101.394531 327.507812 C 96.496094 328.730469 91.882812 329.449219 91.597656 331.398438 C 91.308594 333.34375 92.386719 334.285156 95.054688 334.285156 C 97.722656 334.285156 119.761719 334.285156 124.011719 334.285156 C 128.261719 334.285156 129.558594 331.832031 129.988281 328.449219 C 130.421875 325.0625 133.589844 316.414062 133.589844 316.414062 L 115.152344 311.417969 C 115.15625 311.417969 114.144531 314.679688 112.992188 318.5 Z M 302.511719 331.253906 C 299.410156 330.175781 286.808594 325.707031 283.277344 322.894531 C 279.746094 320.085938 277.492188 316.246094 275.738281 310.453125 L 258.832031 317.175781 C 258.832031 317.175781 261.59375 322.242188 263.179688 325.628906 C 264.761719 329.019531 263.539062 335.714844 269.371094 335.714844 C 275.203125 335.714844 300.921875 335.714844 302.9375 335.714844 C 304.960938 335.722656 305.609375 332.335938 302.511719 331.253906 Z M 302.511719 331.253906 " fill-opacity="1" fill-rule="nonzero"/></g><path fill="#fbfaf8" d="M 123.796875 118.320312 C 117.9375 116.304688 118.992188 109.863281 112.464844 109.191406 C 105.9375 108.519531 104.011719 112.554688 100.554688 112.171875 C 97.09375 111.789062 93.636719 109.964844 89.703125 111.597656 C 85.765625 113.226562 85.476562 118.03125 82.304688 118.996094 C 79.132812 119.957031 73.660156 123.703125 73.46875 128.890625 C 73.277344 134.078125 72.507812 136.289062 70.777344 141.765625 C 69.050781 147.238281 70.488281 153.390625 76.058594 154.734375 C 81.628906 156.078125 78.847656 160.976562 80.285156 166.164062 C 81.722656 171.351562 87.203125 173.371094 91.136719 171.828125 C 95.074219 170.296875 96.511719 175.195312 101.21875 174.332031 C 105.925781 173.46875 110.4375 167.992188 108.617188 164.820312 C 100.257812 162.804688 97.574219 160.976562 97.574219 160.976562 C 97.574219 160.976562 93.347656 165.394531 88.929688 162.320312 C 84.511719 159.242188 87.492188 153.671875 87.492188 153.671875 C 87.492188 153.671875 91.429688 156.078125 95.65625 157.035156 C 95.65625 157.035156 95.078125 154.726562 95.175781 152.136719 C 95.273438 149.542969 96.421875 145.027344 92.96875 141.285156 C 89.511719 137.535156 94.984375 131.871094 94.984375 131.871094 C 94.984375 131.871094 98.636719 133.789062 102.382812 131.101562 C 106.128906 128.410156 108.8125 128.21875 108.8125 128.21875 C 108.8125 128.21875 119.28125 136.386719 122.644531 141.378906 C 122.644531 141.378906 126.582031 140.707031 126.390625 136.671875 C 126.199219 132.636719 130.042969 133.117188 130.808594 128.601562 C 131.578125 124.085938 129.660156 120.339844 123.796875 118.320312 Z M 116.164062 132.542969 L 111.699219 126.339844 C 111.699219 126.339844 114.148438 125.046875 115.875 127.347656 C 117.601562 129.65625 116.164062 132.542969 116.164062 132.542969 Z M 108.453125 131.527344 C 108.597656 132.390625 106.726562 132.246094 105.425781 133.398438 C 104.132812 134.550781 103.664062 136.390625 102.757812 135.484375 C 102.257812 134.980469 102.902344 133.472656 104.125 132.386719 C 105.355469 131.3125 108.3125 130.664062 108.453125 131.527344 Z M 97.867188 142.914062 C 97.507812 144.066406 98.082031 146.449219 97.363281 146.449219 C 96.644531 146.449219 95.492188 143.921875 96.070312 142.339844 C 96.644531 140.757812 98.011719 138.878906 99.167969 139.597656 C 99.898438 140.0625 98.226562 141.765625 97.867188 142.914062 Z M 97.867188 142.914062 " fill-opacity="1" fill-rule="nonzero"/><g clip-path="url(#7c39387f56)"><path fill="#24242e" d="M 244.625 208.046875 C 236.9375 183.648438 225.222656 160.015625 210.816406 154.824219 C 206.398438 153.234375 203.035156 152.078125 200.484375 151.238281 C 200.882812 152.882812 201.789062 157.46875 201.453125 164.382812 C 201.023438 173.171875 193.386719 197.667969 170.910156 202.710938 C 156.761719 205.882812 147.546875 204.210938 142.644531 202.53125 C 153.375 197.21875 154.339844 186.144531 154.339844 186.144531 C 147.714844 197.378906 139.503906 199.832031 138.351562 200.550781 C 138.351562 200.550781 139.082031 201.066406 140.550781 201.722656 C 140.484375 201.691406 140.414062 201.660156 140.355469 201.636719 L 120.691406 287.289062 L 158.824219 266.855469 C 159.910156 264.246094 159.332031 265.882812 160.101562 264.34375 C 166.246094 252.234375 171.046875 239.175781 173.929688 228.796875 C 176.816406 218.421875 189.871094 207.082031 191.027344 207.660156 C 192.179688 208.234375 194.679688 210.925781 196.980469 214.1875 C 199.289062 217.457031 218.113281 245.890625 222.53125 252.421875 C 224.097656 254.734375 226.074219 258.652344 228.171875 263.058594 L 268.484375 286.332031 C 260.929688 261.320312 249.546875 223.679688 244.625 208.046875 Z M 141.402344 202.074219 C 141.234375 202.007812 141.078125 201.945312 140.929688 201.882812 C 141.078125 201.949219 141.234375 202.015625 141.402344 202.074219 Z M 142.386719 202.449219 C 142.195312 202.382812 142.007812 202.316406 141.835938 202.242188 C 142.007812 202.308594 142.195312 202.382812 142.386719 202.449219 Z M 123.113281 143.527344 C 123.011719 143.304688 123.113281 143.046875 123.328125 142.953125 C 123.371094 142.933594 127.558594 140.992188 127.824219 137.410156 C 127.933594 135.941406 128.632812 134.828125 129.378906 133.644531 C 130.660156 131.601562 132.117188 129.28125 130.582031 124.316406 C 130.511719 124.085938 130.640625 123.839844 130.871094 123.769531 C 131.097656 123.695312 131.34375 123.828125 131.414062 124.058594 C 133.0625 129.398438 131.5 131.898438 130.113281 134.105469 C 129.402344 135.238281 128.789062 136.222656 128.695312 137.476562 C 128.386719 141.578125 123.875 143.664062 123.683594 143.75 C 123.621094 143.773438 123.5625 143.785156 123.5 143.785156 C 123.347656 143.785156 123.183594 143.6875 123.113281 143.527344 Z M 107.375 137.152344 C 107.375 136.671875 107.765625 136.289062 108.238281 136.289062 C 108.71875 136.289062 109.101562 136.679688 109.101562 137.152344 C 109.101562 137.632812 108.710938 138.015625 108.238281 138.015625 C 107.757812 138.015625 107.375 137.625 107.375 137.152344 Z M 100.3125 145.648438 C 100.3125 145.171875 100.703125 144.785156 101.175781 144.785156 C 101.65625 144.785156 102.039062 145.175781 102.039062 145.648438 C 102.039062 146.125 101.652344 146.511719 101.175781 146.511719 C 100.703125 146.519531 100.3125 146.128906 100.3125 145.648438 Z M 107.242188 139.5625 C 107.304688 139.328125 107.542969 139.191406 107.777344 139.25 C 107.898438 139.28125 110.796875 140.007812 112.890625 137.722656 C 113.054688 137.542969 113.328125 137.53125 113.507812 137.691406 C 113.6875 137.855469 113.699219 138.128906 113.539062 138.308594 C 112.058594 139.921875 110.246094 140.253906 109.007812 140.253906 C 108.179688 140.253906 107.609375 140.101562 107.550781 140.089844 C 107.316406 140.03125 107.179688 139.792969 107.242188 139.5625 Z M 103.238281 143.472656 C 103.132812 143.257812 103.214844 142.992188 103.429688 142.886719 C 103.648438 142.777344 103.910156 142.863281 104.019531 143.078125 C 104.089844 143.214844 105.75 146.550781 104.097656 150.085938 C 104.023438 150.242188 103.863281 150.339844 103.699219 150.339844 C 103.640625 150.339844 103.574219 150.328125 103.515625 150.296875 C 103.300781 150.195312 103.203125 149.9375 103.304688 149.714844 C 104.785156 146.5625 103.257812 143.503906 103.238281 143.472656 Z M 106.363281 141.648438 C 106.386719 141.410156 106.597656 141.230469 106.835938 141.253906 C 106.855469 141.253906 108.390625 141.40625 110.679688 141.765625 C 111.378906 141.871094 111.882812 142.195312 112.191406 142.722656 C 112.855469 143.882812 112.203125 145.597656 112.171875 145.667969 C 112.105469 145.839844 111.9375 145.945312 111.765625 145.945312 C 111.710938 145.945312 111.65625 145.933594 111.609375 145.914062 C 111.386719 145.824219 111.273438 145.570312 111.363281 145.351562 C 111.511719 144.960938 111.816406 143.816406 111.433594 143.15625 C 111.265625 142.867188 110.980469 142.695312 110.546875 142.628906 C 108.28125 142.273438 106.769531 142.128906 106.757812 142.125 C 106.519531 142.101562 106.34375 141.890625 106.363281 141.648438 Z M 114.820312 146.285156 C 114.90625 146.0625 115.164062 145.949219 115.386719 146.035156 C 115.613281 146.117188 115.71875 146.375 115.636719 146.597656 C 113.957031 150.9375 110.5 151.460938 108.945312 151.460938 C 108.472656 151.460938 108.179688 151.414062 108.167969 151.414062 C 107.925781 151.371094 107.769531 151.140625 107.8125 150.910156 C 107.855469 150.667969 108.082031 150.511719 108.316406 150.554688 C 108.503906 150.585938 112.890625 151.28125 114.820312 146.285156 Z M 122.644531 224.417969 C 119.699219 225.617188 114.78125 227.496094 110.625 228.453125 C 117.519531 225.035156 123.226562 219.859375 123.226562 219.859375 C 123.226562 219.859375 123.011719 221.550781 122.644531 224.417969 Z M 111.015625 169.617188 C 109.394531 171.800781 106.675781 174.074219 102.117188 174.898438 C 102.09375 174.90625 102.0625 174.90625 102.039062 174.90625 C 101.832031 174.90625 101.652344 174.757812 101.613281 174.546875 C 101.574219 174.304688 101.726562 174.085938 101.96875 174.035156 C 111.042969 172.386719 112.371094 164.917969 112.421875 164.597656 C 112.453125 164.429688 112.574219 164.296875 112.730469 164.257812 C 112.808594 163.976562 112.855469 163.808594 112.855469 163.808594 C 118.617188 162.222656 121.789062 155.304688 121.789062 155.304688 C 121.789062 155.304688 121.078125 167.894531 111.015625 169.617188 Z M 182.074219 49.816406 C 181.570312 46.433594 181.636719 40.558594 181.636719 40.304688 C 181.636719 40.066406 181.832031 39.875 182.078125 39.875 C 182.316406 39.875 182.511719 40.070312 182.511719 40.316406 C 182.511719 40.378906 182.445312 46.375 182.9375 49.683594 C 182.972656 49.925781 182.808594 50.144531 182.570312 50.183594 C 182.546875 50.183594 182.527344 50.1875 182.503906 50.1875 C 182.292969 50.1875 182.109375 50.03125 182.074219 49.816406 Z M 178.902344 49.828125 C 178.902344 46.589844 178.828125 40.46875 178.828125 40.46875 L 179.703125 40.457031 C 179.703125 40.457031 179.777344 46.582031 179.777344 49.828125 C 179.777344 50.066406 179.578125 50.265625 179.339844 50.265625 C 179.09375 50.257812 178.902344 50.066406 178.902344 49.828125 Z M 176.449219 49.210938 C 176.234375 46.324219 176.71875 40.796875 176.738281 40.5625 C 176.761719 40.324219 176.976562 40.144531 177.210938 40.167969 C 177.449219 40.191406 177.628906 40.402344 177.605469 40.640625 C 177.601562 40.695312 177.109375 46.332031 177.320312 49.144531 C 177.335938 49.382812 177.15625 49.59375 176.917969 49.613281 C 176.90625 49.613281 176.894531 49.613281 176.878906 49.613281 C 176.660156 49.613281 176.46875 49.4375 176.449219 49.210938 Z M 102.296875 317.710938 C 102.460938 317.890625 102.4375 318.164062 102.257812 318.328125 C 101.136719 319.3125 98.125 322.152344 97.621094 323.484375 C 97.554688 323.65625 97.386719 323.765625 97.214844 323.765625 C 97.160156 323.765625 97.113281 323.761719 97.058594 323.734375 C 96.832031 323.652344 96.714844 323.398438 96.800781 323.171875 C 97.476562 321.363281 101.507812 317.816406 101.675781 317.667969 C 101.867188 317.511719 102.140625 317.53125 102.296875 317.710938 Z M 93.558594 320.367188 C 93.683594 320.570312 93.617188 320.839844 93.414062 320.964844 C 93.371094 320.988281 89.378906 323.417969 88.042969 324.402344 C 86.859375 325.269531 86.703125 326.0625 86.699219 326.070312 C 86.65625 326.277344 86.476562 326.429688 86.265625 326.429688 C 86.242188 326.429688 86.21875 326.429688 86.195312 326.421875 C 85.960938 326.378906 85.800781 326.164062 85.835938 325.929688 C 85.855469 325.816406 86.050781 324.785156 87.519531 323.699219 C 88.886719 322.691406 92.789062 320.316406 92.957031 320.222656 C 93.160156 320.097656 93.429688 320.164062 93.558594 320.367188 Z M 90.566406 319.425781 C 90.519531 319.460938 86.046875 322.800781 85.285156 323.5625 C 84.613281 324.234375 84.46875 325.042969 84.46875 325.050781 C 84.433594 325.265625 84.246094 325.414062 84.039062 325.414062 C 84.011719 325.414062 83.988281 325.414062 83.972656 325.410156 C 83.730469 325.371094 83.570312 325.152344 83.605469 324.910156 C 83.613281 324.871094 83.78125 323.824219 84.667969 322.9375 C 85.46875 322.136719 89.859375 318.855469 90.042969 318.71875 C 90.234375 318.574219 90.511719 318.613281 90.65625 318.808594 C 90.800781 319.011719 90.757812 319.28125 90.566406 319.425781 Z M 87.722656 318.65625 C 86.601562 319.363281 83.574219 321.378906 83.03125 322.207031 C 82.425781 323.113281 82.453125 323.652344 82.453125 323.65625 C 82.464844 323.890625 82.292969 324.101562 82.058594 324.125 C 82.046875 324.125 82.035156 324.125 82.015625 324.125 C 81.796875 324.125 81.609375 323.964844 81.585938 323.742188 C 81.578125 323.65625 81.519531 322.902344 82.304688 321.722656 C 83.054688 320.59375 86.832031 318.1875 87.261719 317.917969 C 87.464844 317.792969 87.734375 317.855469 87.863281 318.058594 C 87.992188 318.253906 87.929688 318.523438 87.722656 318.65625 Z M 123.921875 324.257812 C 123.214844 326.378906 121.210938 327.09375 121.128906 327.125 C 121.078125 327.140625 121.03125 327.148438 120.984375 327.148438 C 120.804688 327.148438 120.636719 327.035156 120.570312 326.855469 C 120.492188 326.625 120.613281 326.378906 120.839844 326.296875 C 120.859375 326.289062 122.523438 325.683594 123.09375 323.976562 C 123.171875 323.746094 123.417969 323.621094 123.644531 323.699219 C 123.875 323.785156 124 324.03125 123.921875 324.257812 Z M 269.515625 324.210938 C 269.472656 324.414062 269.292969 324.558594 269.089844 324.558594 C 269.058594 324.558594 269.027344 324.558594 269 324.546875 C 265.898438 323.890625 266.207031 321.347656 266.207031 321.324219 C 266.234375 321.085938 266.464844 320.910156 266.695312 320.953125 C 266.9375 320.984375 267.105469 321.207031 267.074219 321.4375 C 267.050781 321.625 266.929688 323.21875 269.179688 323.695312 C 269.414062 323.742188 269.5625 323.976562 269.515625 324.210938 Z M 299.808594 333.347656 C 300.171875 334.378906 299.613281 335.507812 299.589844 335.554688 C 299.511719 335.703125 299.363281 335.792969 299.203125 335.792969 C 299.136719 335.792969 299.070312 335.777344 299.007812 335.746094 C 298.792969 335.640625 298.703125 335.382812 298.8125 335.164062 C 298.816406 335.160156 299.226562 334.3125 298.984375 333.636719 C 298.878906 333.335938 298.65625 333.109375 298.300781 332.945312 C 296.613281 332.171875 294.25 331.308594 294.226562 331.304688 C 293.996094 331.21875 293.882812 330.972656 293.96875 330.746094 C 294.050781 330.519531 294.296875 330.402344 294.523438 330.488281 C 294.550781 330.492188 296.941406 331.371094 298.660156 332.160156 C 299.230469 332.417969 299.613281 332.820312 299.808594 333.347656 Z M 302.359375 335.53125 C 302.3125 335.734375 302.132812 335.867188 301.933594 335.867188 C 301.90625 335.867188 301.867188 335.859375 301.839844 335.855469 C 301.605469 335.800781 301.457031 335.566406 301.507812 335.332031 C 301.808594 334.027344 299.914062 332.304688 299.152344 331.746094 C 298.957031 331.601562 298.914062 331.332031 299.058594 331.136719 C 299.203125 330.945312 299.472656 330.902344 299.667969 331.039062 C 299.800781 331.140625 302.851562 333.402344 302.359375 335.53125 Z M 304.242188 335.21875 C 304.277344 335.457031 304.117188 335.679688 303.878906 335.714844 C 303.851562 335.722656 303.828125 335.722656 303.8125 335.722656 C 303.601562 335.722656 303.414062 335.566406 303.378906 335.351562 C 303.042969 333.191406 302.097656 331.878906 302.089844 331.867188 C 301.945312 331.675781 301.988281 331.398438 302.1875 331.253906 C 302.378906 331.113281 302.65625 331.152344 302.792969 331.34375 C 302.835938 331.417969 303.871094 332.839844 304.242188 335.21875 Z M 161.570312 135.695312 C 161.652344 135.46875 161.910156 135.359375 162.132812 135.445312 L 168.90625 138.039062 C 169.136719 138.125 169.242188 138.375 169.160156 138.605469 C 169.09375 138.777344 168.925781 138.886719 168.75 138.886719 C 168.699219 138.886719 168.648438 138.875 168.597656 138.855469 L 161.820312 136.257812 C 161.59375 136.175781 161.480469 135.921875 161.570312 135.695312 Z M 161.570312 135.695312 " fill-opacity="1" fill-rule="nonzero"/></g></svg>